<?xml version="1.0"?>

<VTKFile type="PolyData" version="0.1" byte_order="LittleEndian">
   <PolyData>
      <!-- from track file IAN.b01.actual.fort.22 -->
      <Piece NumberOfPoints="5" NumberOfLines="4">
         <PointData Scalars="vmax">
            <DataArray type="Float64" Name="vmax" format="ascii">61.7333328 59.1611106 51.444444 41.1555552 18.0055554</DataArray>
         </PointData>
         <Points>
            <DataArray NumberOfComponents="3" type="Float64" Name="PointLocations" format="ascii">-84.9 25.2 0  -85 26.9 0  -85 28 0  -85.4 29.6 0  -86.6 32 0</DataArray>
         </Points>
         <Lines>
            <DataArray type="Int32" Name="connectivity" format="ascii">0 1  1 2  2 3  3 4  4 5</DataArray>
            <DataArray type="Int32" Name="offsets" format="ascii">2 4 6 8 10</DataArray>
         </Lines>
      </Piece>
      <!-- from track file IAN.b02.actual.fort.22 -->
      <Piece NumberOfPoints="4" NumberOfLines="3">
         <PointData Scalars="vmax">
            <DataArray type="Float64" Name="vmax" format="ascii">59.1611106 51.444444 41.1555552 18.0055554</DataArray>
         </PointData>
         <Points>
            <DataArray NumberOfComponents="3" type="Float64" Name="PointLocations" format="ascii">-84.6 26.9 0  -84.8 28 0  -85.1 29.6 0  -86.1 32 0</DataArray>
         </Points>
         <Lines>
            <DataArray type="Int32" Name="connectivity" format="ascii">0 1  1 2  2 3  3 4</DataArray>
            <DataArray type="Int32" Name="offsets" format="ascii">2 4 6 8</DataArray>
         </Lines>
      </Piece>
      <!-- from track file IAN.b03.actual.fort.22 -->
      <Piece NumberOfPoints="10" NumberOfLines="9">
         <PointData Scalars="vmax">
            <DataArray type="Float64" Name="vmax" format="ascii">33.4388886 33.4388886 46.2999996 54.0166662 59.1611106 61.7333328 59.1611106 51.444444 41.1555552 18.0055554</DataArray>
         </PointData>
         <Points>
            <DataArray NumberOfComponents="3" type="Float64" Name="PointLocations" format="ascii">-81.7 17.7 0  -82 18.2 0  -83.2 19.5 0  -84.3 21.5 0  -84.7 23.5 0  -84.9 25.2 0  -84.6 26.9 0  -84.6 27.9 0  -84.8 29.5 0  -85.7 32 0</DataArray>
         </Points>
         <Lines>
            <DataArray type="Int32" Name="connectivity" format="ascii">0 1  1 2  2 3  3 4  4 5  5 6  6 7  7 8  8 9  9 10</DataArray>
            <DataArray type="Int32" Name="offsets" format="ascii">2 4 6 8 10 12 14 16 18 20</DataArray>
         </Lines>
      </Piece>
      <!-- from track file IAN.b04.actual.fort.22 -->
      <Piece NumberOfPoints="4" NumberOfLines="3">
         <PointData Scalars="vmax">
            <DataArray type="Float64" Name="vmax" format="ascii">59.1611106 51.444444 41.1555552 18.0055554</DataArray>
         </PointData>
         <Points>
            <DataArray NumberOfComponents="3" type="Float64" Name="PointLocations" format="ascii">-84.6 26.9 0  -84.4 27.9 0  -84.5 29.4 0  -85.2 32 0</DataArray>
         </Points>
         <Lines>
            <DataArray type="Int32" Name="connectivity" format="ascii">0 1  1 2  2 3  3 4</DataArray>
            <DataArray type="Int32" Name="offsets" format="ascii">2 4 6 8</DataArray>
         </Lines>
      </Piece>
      <!-- from track file IAN.b05.actual.fort.22 -->
      <Piece NumberOfPoints="5" NumberOfLines="4">
         <PointData Scalars="vmax">
            <DataArray type="Float64" Name="vmax" format="ascii">61.7333328 59.1611106 51.444444 41.1555552 18.0055554</DataArray>
         </PointData>
         <Points>
            <DataArray NumberOfComponents="3" type="Float64" Name="PointLocations" format="ascii">-84.9 25.2 0  -84.3 26.8 0  -84.2 27.8 0  -84.2 29.4 0  -84.7 32 0</DataArray>
         </Points>
         <Lines>
            <DataArray type="Int32" Name="connectivity" format="ascii">0 1  1 2  2 3  3 4  4 5</DataArray>
            <DataArray type="Int32" Name="offsets" format="ascii">2 4 6 8 10</DataArray>
         </Lines>
      </Piece>
      <!-- from track file IAN.b06.actual.fort.22 -->
      <Piece NumberOfPoints="6" NumberOfLines="5">
         <PointData Scalars="vmax">
            <DataArray type="Float64" Name="vmax" format="ascii">59.1611106 61.7333328 59.1611106 51.444444 41.1555552 18.0055554</DataArray>
         </PointData>
         <Points>
            <DataArray NumberOfComponents="3" type="Float64" Name="PointLocations" format="ascii">-84.1 23.5 0  -84.5 25.2 0  -84.1 26.8 0  -84 27.8 0  -83.8 29.3 0  -84.3 32 0</DataArray>
         </Points>
         <Lines>
            <DataArray type="Int32" Name="connectivity" format="ascii">0 1  1 2  2 3  3 4  4 5  5 6</DataArray>
            <DataArray type="Int32" Name="offsets" format="ascii">2 4 6 8 10 12</DataArray>
         </Lines>
      </Piece>
      <!-- from track file IAN.b07.actual.fort.22 -->
      <Piece NumberOfPoints="5" NumberOfLines="4">
         <PointData Scalars="vmax">
            <DataArray type="Float64" Name="vmax" format="ascii">61.7333328 59.1611106 51.444444 41.1555552 18.0055554</DataArray>
         </PointData>
         <Points>
            <DataArray NumberOfComponents="3" type="Float64" Name="PointLocations" format="ascii">-84.1 25.3 0  -84 26.7 0  -83.8 27.7 0  -83.5 29.3 0  -83.8 32 0</DataArray>
         </Points>
         <Lines>
            <DataArray type="Int32" Name="connectivity" format="ascii">0 1  1 2  2 3  3 4  4 5</DataArray>
            <DataArray type="Int32" Name="offsets" format="ascii">2 4 6 8 10</DataArray>
         </Lines>
      </Piece>
      <!-- from track file IAN.b08.actual.fort.22 -->
      <Piece NumberOfPoints="4" NumberOfLines="3">
         <PointData Scalars="vmax">
            <DataArray type="Float64" Name="vmax" format="ascii">59.1611106 51.444444 41.1555552 18.0055554</DataArray>
         </PointData>
         <Points>
            <DataArray NumberOfComponents="3" type="Float64" Name="PointLocations" format="ascii">-83.7 26.6 0  -83.6 27.7 0  -83.2 29.2 0  -83.3 32 0</DataArray>
         </Points>
         <Lines>
            <DataArray type="Int32" Name="connectivity" format="ascii">0 1  1 2  2 3  3 4</DataArray>
            <DataArray type="Int32" Name="offsets" format="ascii">2 4 6 8</DataArray>
         </Lines>
      </Piece>
      <!-- from track file IAN.b09.actual.fort.22 -->
      <Piece NumberOfPoints="10" NumberOfLines="9">
         <PointData Scalars="vmax">
            <DataArray type="Float64" Name="vmax" format="ascii">33.4388886 33.4388886 46.2999996 54.0166662 59.1611106 61.7333328 59.1611106 51.444444 41.1555552 18.0055554</DataArray>
         </PointData>
         <Points>
            <DataArray NumberOfComponents="3" type="Float64" Name="PointLocations" format="ascii">-81.7 17.7 0  -82 18.2 0  -83 19.7 0  -83.9 21.7 0  -84.1 23.5 0  -84.1 25.3 0  -83.7 26.6 0  -83.4 27.7 0  -83 29.2 0  -82.9 31.9 0</DataArray>
         </Points>
         <Lines>
            <DataArray type="Int32" Name="connectivity" format="ascii">0 1  1 2  2 3  3 4  4 5  5 6  6 7  7 8  8 9  9 10</DataArray>
            <DataArray type="Int32" Name="offsets" format="ascii">2 4 6 8 10 12 14 16 18 20</DataArray>
         </Lines>
      </Piece>
      <!-- from track file IAN.b10.actual.fort.22 -->
      <Piece NumberOfPoints="4" NumberOfLines="3">
         <PointData Scalars="vmax">
            <DataArray type="Float64" Name="vmax" format="ascii">59.1611106 51.444444 41.1555552 18.0055554</DataArray>
         </PointData>
         <Points>
            <DataArray NumberOfComponents="3" type="Float64" Name="PointLocations" format="ascii">-83.7 26.6 0  -83.1 27.6 0  -82.7 29.1 0  -82.4 31.9 0</DataArray>
         </Points>
         <Lines>
            <DataArray type="Int32" Name="connectivity" format="ascii">0 1  1 2  2 3  3 4</DataArray>
            <DataArray type="Int32" Name="offsets" format="ascii">2 4 6 8</DataArray>
         </Lines>
      </Piece>
      <!-- from track file IAN.b11.actual.fort.22 -->
      <Piece NumberOfPoints="5" NumberOfLines="4">
         <PointData Scalars="vmax">
            <DataArray type="Float64" Name="vmax" format="ascii">61.7333328 59.1611106 51.444444 41.1555552 18.0055554</DataArray>
         </PointData>
         <Points>
            <DataArray NumberOfComponents="3" type="Float64" Name="PointLocations" format="ascii">-84.1 25.3 0  -83.3 26.6 0  -82.9 27.6 0  -82.4 29 0  -81.9 31.9 0</DataArray>
         </Points>
         <Lines>
            <DataArray type="Int32" Name="connectivity" format="ascii">0 1  1 2  2 3  3 4  4 5</DataArray>
            <DataArray type="Int32" Name="offsets" format="ascii">2 4 6 8 10</DataArray>
         </Lines>
      </Piece>
      <!-- from track file IAN.b12.actual.fort.22 -->
      <Piece NumberOfPoints="6" NumberOfLines="5">
         <PointData Scalars="vmax">
            <DataArray type="Float64" Name="vmax" format="ascii">59.1611106 61.7333328 59.1611106 51.444444 41.1555552 18.0055554</DataArray>
         </PointData>
         <Points>
            <DataArray NumberOfComponents="3" type="Float64" Name="PointLocations" format="ascii">-84.1 23.5 0  -83.6 25.2 0  -83.2 26.5 0  -82.7 27.5 0  -82.1 29 0  -81.4 31.9 0</DataArray>
         </Points>
         <Lines>
            <DataArray type="Int32" Name="connectivity" format="ascii">0 1  1 2  2 3  3 4  4 5  5 6</DataArray>
            <DataArray type="Int32" Name="offsets" format="ascii">2 4 6 8 10 12</DataArray>
         </Lines>
      </Piece>
      <!-- from track file IAN.b13.actual.fort.22 -->
      <Piece NumberOfPoints="5" NumberOfLines="4">
         <PointData Scalars="vmax">
            <DataArray type="Float64" Name="vmax" format="ascii">61.7333328 59.1611106 51.444444 41.1555552 18.0055554</DataArray>
         </PointData>
         <Points>
            <DataArray NumberOfComponents="3" type="Float64" Name="PointLocations" format="ascii">-83.2 25.2 0  -83 26.5 0  -82.5 27.5 0  -81.8 28.9 0  -81 31.9 0</DataArray>
         </Points>
         <Lines>
            <DataArray type="Int32" Name="connectivity" format="ascii">0 1  1 2  2 3  3 4  4 5</DataArray>
            <DataArray type="Int32" Name="offsets" format="ascii">2 4 6 8 10</DataArray>
         </Lines>
      </Piece>
      <!-- from track file IAN.b14.actual.fort.22 -->
      <Piece NumberOfPoints="4" NumberOfLines="3">
         <PointData Scalars="vmax">
            <DataArray type="Float64" Name="vmax" format="ascii">59.1611106 51.444444 41.1555552 18.0055554</DataArray>
         </PointData>
         <Points>
            <DataArray NumberOfComponents="3" type="Float64" Name="PointLocations" format="ascii">-82.7 26.4 0  -82.3 27.4 0  -81.5 28.8 0  -80.5 31.9 0</DataArray>
         </Points>
         <Lines>
            <DataArray type="Int32" Name="connectivity" format="ascii">0 1  1 2  2 3  3 4</DataArray>
            <DataArray type="Int32" Name="offsets" format="ascii">2 4 6 8</DataArray>
         </Lines>
      </Piece>
      <!-- from track file IAN.b15.actual.fort.22 -->
      <Piece NumberOfPoints="10" NumberOfLines="9">
         <PointData Scalars="vmax">
            <DataArray type="Float64" Name="vmax" format="ascii">33.4388886 33.4388886 46.2999996 54.0166662 59.1611106 61.7333328 59.1611106 51.444444 41.1555552 18.0055554</DataArray>
         </PointData>
         <Points>
            <DataArray NumberOfComponents="3" type="Float64" Name="PointLocations" format="ascii">-81.7 17.7 0  -82 18.2 0  -82.7 19.8 0  -83.4 21.8 0  -83.4 23.6 0  -83.2 25.2 0  -82.7 26.4 0  -82.1 27.4 0  -81.2 28.8 0  -80 31.8 0</DataArray>
         </Points>
         <Lines>
            <DataArray type="Int32" Name="connectivity" format="ascii">0 1  1 2  2 3  3 4  4 5  5 6  6 7  7 8  8 9  9 10</DataArray>
            <DataArray type="Int32" Name="offsets" format="ascii">2 4 6 8 10 12 14 16 18 20</DataArray>
         </Lines>
      </Piece>
      <!-- from track file IAN.b16.actual.fort.22 -->
      <Piece NumberOfPoints="4" NumberOfLines="3">
         <PointData Scalars="vmax">
            <DataArray type="Float64" Name="vmax" format="ascii">59.1611106 51.444444 41.1555552 18.0055554</DataArray>
         </PointData>
         <Points>
            <DataArray NumberOfComponents="3" type="Float64" Name="PointLocations" format="ascii">-82.7 26.4 0  -81.9 27.3 0  -80.9 28.7 0  -79.6 31.8 0</DataArray>
         </Points>
         <Lines>
            <DataArray type="Int32" Name="connectivity" format="ascii">0 1  1 2  2 3  3 4</DataArray>
            <DataArray type="Int32" Name="offsets" format="ascii">2 4 6 8</DataArray>
         </Lines>
      </Piece>
      <!-- from track file IAN.b17.actual.fort.22 -->
      <Piece NumberOfPoints="5" NumberOfLines="4">
         <PointData Scalars="vmax">
            <DataArray type="Float64" Name="vmax" format="ascii">61.7333328 59.1611106 51.444444 41.1555552 18.0055554</DataArray>
         </PointData>
         <Points>
            <DataArray NumberOfComponents="3" type="Float64" Name="PointLocations" format="ascii">-83.2 25.2 0  -82.3 26.3 0  -81.7 27.3 0  -80.6 28.6 0  -79.1 31.8 0</DataArray>
         </Points>
         <Lines>
            <DataArray type="Int32" Name="connectivity" format="ascii">0 1  1 2  2 3  3 4  4 5</DataArray>
            <DataArray type="Int32" Name="offsets" format="ascii">2 4 6 8 10</DataArray>
         </Lines>
      </Piece>
   </PolyData>
</VTKFile>
