<?xml version="1.0"?>

<VTKFile type="PolyData" version="0.1" byte_order="LittleEndian">
   <PolyData>
      <!-- from track file IDA.f01.actual.fort.22 -->
      <Piece NumberOfPoints="8" NumberOfLines="7">
         <PointData Scalars="vmax">
            <DataArray type="Float64" Name="vmax" format="ascii">23.1499998 20.5777776 25.722222 30.8666664 36.0111108 43.7277774 51.444444 43.7277774</DataArray>
         </PointData>
         <Points>
            <DataArray NumberOfComponents="3" type="Float64" Name="PointLocations" format="ascii">-80.9 19.4 0  -81.4 20 0  -83.1 21.2 0  -85.3 22.9 0  -87.5 24.7 0  -89.5 26.4 0  -91.2 27.9 0  -92.6 29.3 0</DataArray>
         </Points>
         <Lines>
            <DataArray type="Int32" Name="connectivity" format="ascii">0 1  1 2  2 3  3 4  4 5  5 6  6 7  7 8</DataArray>
            <DataArray type="Int32" Name="offsets" format="ascii">2 4 6 8 10 12 14 16</DataArray>
         </Lines>
      </Piece>
      <!-- from track file IDA.f02.actual.fort.22 -->
      <Piece NumberOfPoints="8" NumberOfLines="7">
         <PointData Scalars="vmax">
            <DataArray type="Float64" Name="vmax" format="ascii">23.1499998 20.5777776 25.722222 30.8666664 36.0111108 43.7277774 51.444444 43.7277774</DataArray>
         </PointData>
         <Points>
            <DataArray NumberOfComponents="3" type="Float64" Name="PointLocations" format="ascii">-80.9 19.4 0  -81.4 20 0  -83.1 21.2 0  -85.3 23 0  -87.4 24.8 0  -89.4 26.5 0  -91.1 28 0  -92.4 29.4 0</DataArray>
         </Points>
         <Lines>
            <DataArray type="Int32" Name="connectivity" format="ascii">0 1  1 2  2 3  3 4  4 5  5 6  6 7  7 8</DataArray>
            <DataArray type="Int32" Name="offsets" format="ascii">2 4 6 8 10 12 14 16</DataArray>
         </Lines>
      </Piece>
      <!-- from track file IDA.f03.actual.fort.22 -->
      <Piece NumberOfPoints="8" NumberOfLines="7">
         <PointData Scalars="vmax">
            <DataArray type="Float64" Name="vmax" format="ascii">23.1499998 20.5777776 25.722222 30.8666664 36.0111108 43.7277774 51.444444 43.7277774</DataArray>
         </PointData>
         <Points>
            <DataArray NumberOfComponents="3" type="Float64" Name="PointLocations" format="ascii">-80.9 19.4 0  -81.4 20 0  -83.1 21.3 0  -85.2 23 0  -87.3 24.8 0  -89.3 26.5 0  -91 28.1 0  -92.2 29.5 0</DataArray>
         </Points>
         <Lines>
            <DataArray type="Int32" Name="connectivity" format="ascii">0 1  1 2  2 3  3 4  4 5  5 6  6 7  7 8</DataArray>
            <DataArray type="Int32" Name="offsets" format="ascii">2 4 6 8 10 12 14 16</DataArray>
         </Lines>
      </Piece>
      <!-- from track file IDA.f04.actual.fort.22 -->
      <Piece NumberOfPoints="8" NumberOfLines="7">
         <PointData Scalars="vmax">
            <DataArray type="Float64" Name="vmax" format="ascii">23.1499998 20.5777776 25.722222 30.8666664 36.0111108 43.7277774 51.444444 43.7277774</DataArray>
         </PointData>
         <Points>
            <DataArray NumberOfComponents="3" type="Float64" Name="PointLocations" format="ascii">-80.9 19.4 0  -81.4 20 0  -83 21.3 0  -85.1 23.1 0  -87.2 24.9 0  -89.2 26.6 0  -90.8 28.2 0  -92 29.6 0</DataArray>
         </Points>
         <Lines>
            <DataArray type="Int32" Name="connectivity" format="ascii">0 1  1 2  2 3  3 4  4 5  5 6  6 7  7 8</DataArray>
            <DataArray type="Int32" Name="offsets" format="ascii">2 4 6 8 10 12 14 16</DataArray>
         </Lines>
      </Piece>
      <!-- from track file IDA.f05.actual.fort.22 -->
      <Piece NumberOfPoints="8" NumberOfLines="7">
         <PointData Scalars="vmax">
            <DataArray type="Float64" Name="vmax" format="ascii">23.1499998 20.5777776 25.722222 30.8666664 36.0111108 43.7277774 51.444444 43.7277774</DataArray>
         </PointData>
         <Points>
            <DataArray NumberOfComponents="3" type="Float64" Name="PointLocations" format="ascii">-80.9 19.4 0  -81.4 20 0  -83 21.3 0  -85.1 23.1 0  -87.2 25 0  -89.1 26.7 0  -90.7 28.3 0  -91.8 29.7 0</DataArray>
         </Points>
         <Lines>
            <DataArray type="Int32" Name="connectivity" format="ascii">0 1  1 2  2 3  3 4  4 5  5 6  6 7  7 8</DataArray>
            <DataArray type="Int32" Name="offsets" format="ascii">2 4 6 8 10 12 14 16</DataArray>
         </Lines>
      </Piece>
      <!-- from track file IDA.f06.actual.fort.22 -->
      <Piece NumberOfPoints="8" NumberOfLines="7">
         <PointData Scalars="vmax">
            <DataArray type="Float64" Name="vmax" format="ascii">23.1499998 20.5777776 25.722222 30.8666664 36.0111108 43.7277774 51.444444 43.7277774</DataArray>
         </PointData>
         <Points>
            <DataArray NumberOfComponents="3" type="Float64" Name="PointLocations" format="ascii">-80.9 19.4 0  -81.4 20 0  -83 21.4 0  -85 23.2 0  -87.1 25 0  -89 26.8 0  -90.6 28.4 0  -91.6 29.8 0</DataArray>
         </Points>
         <Lines>
            <DataArray type="Int32" Name="connectivity" format="ascii">0 1  1 2  2 3  3 4  4 5  5 6  6 7  7 8</DataArray>
            <DataArray type="Int32" Name="offsets" format="ascii">2 4 6 8 10 12 14 16</DataArray>
         </Lines>
      </Piece>
      <!-- from track file IDA.f07.actual.fort.22 -->
      <Piece NumberOfPoints="8" NumberOfLines="7">
         <PointData Scalars="vmax">
            <DataArray type="Float64" Name="vmax" format="ascii">23.1499998 20.5777776 25.722222 30.8666664 36.0111108 43.7277774 51.444444 43.7277774</DataArray>
         </PointData>
         <Points>
            <DataArray NumberOfComponents="3" type="Float64" Name="PointLocations" format="ascii">-80.9 19.4 0  -81.4 20 0  -82.9 21.4 0  -85 23.2 0  -87 25.1 0  -88.9 26.9 0  -90.4 28.5 0  -91.4 29.9 0</DataArray>
         </Points>
         <Lines>
            <DataArray type="Int32" Name="connectivity" format="ascii">0 1  1 2  2 3  3 4  4 5  5 6  6 7  7 8</DataArray>
            <DataArray type="Int32" Name="offsets" format="ascii">2 4 6 8 10 12 14 16</DataArray>
         </Lines>
      </Piece>
      <!-- from track file IDA.f08.actual.fort.22 -->
      <Piece NumberOfPoints="8" NumberOfLines="7">
         <PointData Scalars="vmax">
            <DataArray type="Float64" Name="vmax" format="ascii">23.1499998 20.5777776 25.722222 30.8666664 36.0111108 43.7277774 51.444444 43.7277774</DataArray>
         </PointData>
         <Points>
            <DataArray NumberOfComponents="3" type="Float64" Name="PointLocations" format="ascii">-80.9 19.4 0  -81.4 20 0  -82.9 21.4 0  -84.9 23.3 0  -86.9 25.2 0  -88.8 27 0  -90.3 28.6 0  -91.2 30 0</DataArray>
         </Points>
         <Lines>
            <DataArray type="Int32" Name="connectivity" format="ascii">0 1  1 2  2 3  3 4  4 5  5 6  6 7  7 8</DataArray>
            <DataArray type="Int32" Name="offsets" format="ascii">2 4 6 8 10 12 14 16</DataArray>
         </Lines>
      </Piece>
      <!-- from track file IDA.f09.actual.fort.22 -->
      <Piece NumberOfPoints="8" NumberOfLines="7">
         <PointData Scalars="vmax">
            <DataArray type="Float64" Name="vmax" format="ascii">23.1499998 20.5777776 25.722222 30.8666664 36.0111108 43.7277774 51.444444 43.7277774</DataArray>
         </PointData>
         <Points>
            <DataArray NumberOfComponents="3" type="Float64" Name="PointLocations" format="ascii">-80.9 19.4 0  -81.4 20 0  -82.9 21.5 0  -84.9 23.4 0  -86.9 25.3 0  -88.8 27.1 0  -90.2 28.7 0  -91.1 30.1 0</DataArray>
         </Points>
         <Lines>
            <DataArray type="Int32" Name="connectivity" format="ascii">0 1  1 2  2 3  3 4  4 5  5 6  6 7  7 8</DataArray>
            <DataArray type="Int32" Name="offsets" format="ascii">2 4 6 8 10 12 14 16</DataArray>
         </Lines>
      </Piece>
      <!-- from track file IDA.f10.actual.fort.22 -->
      <Piece NumberOfPoints="8" NumberOfLines="7">
         <PointData Scalars="vmax">
            <DataArray type="Float64" Name="vmax" format="ascii">23.1499998 20.5777776 25.722222 30.8666664 36.0111108 43.7277774 51.444444 43.7277774</DataArray>
         </PointData>
         <Points>
            <DataArray NumberOfComponents="3" type="Float64" Name="PointLocations" format="ascii">-80.9 19.4 0  -81.4 20 0  -82.8 21.5 0  -84.8 23.4 0  -86.8 25.3 0  -88.6 27.1 0  -90 28.7 0  -90.9 30.1 0</DataArray>
         </Points>
         <Lines>
            <DataArray type="Int32" Name="connectivity" format="ascii">0 1  1 2  2 3  3 4  4 5  5 6  6 7  7 8</DataArray>
            <DataArray type="Int32" Name="offsets" format="ascii">2 4 6 8 10 12 14 16</DataArray>
         </Lines>
      </Piece>
      <!-- from track file IDA.f11.actual.fort.22 -->
      <Piece NumberOfPoints="8" NumberOfLines="7">
         <PointData Scalars="vmax">
            <DataArray type="Float64" Name="vmax" format="ascii">23.1499998 20.5777776 25.722222 30.8666664 36.0111108 43.7277774 51.444444 43.7277774</DataArray>
         </PointData>
         <Points>
            <DataArray NumberOfComponents="3" type="Float64" Name="PointLocations" format="ascii">-80.9 19.4 0  -81.4 20 0  -82.8 21.5 0  -84.7 23.5 0  -86.7 25.4 0  -88.5 27.2 0  -89.9 28.8 0  -90.7 30.2 0</DataArray>
         </Points>
         <Lines>
            <DataArray type="Int32" Name="connectivity" format="ascii">0 1  1 2  2 3  3 4  4 5  5 6  6 7  7 8</DataArray>
            <DataArray type="Int32" Name="offsets" format="ascii">2 4 6 8 10 12 14 16</DataArray>
         </Lines>
      </Piece>
      <!-- from track file IDA.f12.actual.fort.22 -->
      <Piece NumberOfPoints="8" NumberOfLines="7">
         <PointData Scalars="vmax">
            <DataArray type="Float64" Name="vmax" format="ascii">23.1499998 20.5777776 25.722222 30.8666664 36.0111108 43.7277774 51.444444 43.7277774</DataArray>
         </PointData>
         <Points>
            <DataArray NumberOfComponents="3" type="Float64" Name="PointLocations" format="ascii">-80.9 19.4 0  -81.4 20 0  -82.7 21.5 0  -84.7 23.5 0  -86.6 25.5 0  -88.4 27.3 0  -89.7 28.9 0  -90.5 30.3 0</DataArray>
         </Points>
         <Lines>
            <DataArray type="Int32" Name="connectivity" format="ascii">0 1  1 2  2 3  3 4  4 5  5 6  6 7  7 8</DataArray>
            <DataArray type="Int32" Name="offsets" format="ascii">2 4 6 8 10 12 14 16</DataArray>
         </Lines>
      </Piece>
      <!-- from track file IDA.f13.actual.fort.22 -->
      <Piece NumberOfPoints="8" NumberOfLines="7">
         <PointData Scalars="vmax">
            <DataArray type="Float64" Name="vmax" format="ascii">23.1499998 20.5777776 25.722222 30.8666664 36.0111108 43.7277774 51.444444 43.7277774</DataArray>
         </PointData>
         <Points>
            <DataArray NumberOfComponents="3" type="Float64" Name="PointLocations" format="ascii">-80.9 19.4 0  -81.4 20 0  -82.7 21.6 0  -84.6 23.6 0  -86.5 25.5 0  -88.3 27.4 0  -89.6 29 0  -90.3 30.4 0</DataArray>
         </Points>
         <Lines>
            <DataArray type="Int32" Name="connectivity" format="ascii">0 1  1 2  2 3  3 4  4 5  5 6  6 7  7 8</DataArray>
            <DataArray type="Int32" Name="offsets" format="ascii">2 4 6 8 10 12 14 16</DataArray>
         </Lines>
      </Piece>
      <!-- from track file IDA.f14.actual.fort.22 -->
      <Piece NumberOfPoints="8" NumberOfLines="7">
         <PointData Scalars="vmax">
            <DataArray type="Float64" Name="vmax" format="ascii">23.1499998 20.5777776 25.722222 30.8666664 36.0111108 43.7277774 51.444444 43.7277774</DataArray>
         </PointData>
         <Points>
            <DataArray NumberOfComponents="3" type="Float64" Name="PointLocations" format="ascii">-80.9 19.4 0  -81.4 20 0  -82.7 21.6 0  -84.6 23.6 0  -86.5 25.6 0  -88.2 27.5 0  -89.5 29.1 0  -90.1 30.5 0</DataArray>
         </Points>
         <Lines>
            <DataArray type="Int32" Name="connectivity" format="ascii">0 1  1 2  2 3  3 4  4 5  5 6  6 7  7 8</DataArray>
            <DataArray type="Int32" Name="offsets" format="ascii">2 4 6 8 10 12 14 16</DataArray>
         </Lines>
      </Piece>
      <!-- from track file IDA.f15.actual.fort.22 -->
      <Piece NumberOfPoints="8" NumberOfLines="7">
         <PointData Scalars="vmax">
            <DataArray type="Float64" Name="vmax" format="ascii">23.1499998 20.5777776 25.722222 30.8666664 36.0111108 43.7277774 51.444444 43.7277774</DataArray>
         </PointData>
         <Points>
            <DataArray NumberOfComponents="3" type="Float64" Name="PointLocations" format="ascii">-80.9 19.4 0  -81.4 20 0  -82.6 21.6 0  -84.5 23.7 0  -86.4 25.7 0  -88.1 27.6 0  -89.3 29.2 0  -89.9 30.6 0</DataArray>
         </Points>
         <Lines>
            <DataArray type="Int32" Name="connectivity" format="ascii">0 1  1 2  2 3  3 4  4 5  5 6  6 7  7 8</DataArray>
            <DataArray type="Int32" Name="offsets" format="ascii">2 4 6 8 10 12 14 16</DataArray>
         </Lines>
      </Piece>
      <!-- from track file IDA.f16.actual.fort.22 -->
      <Piece NumberOfPoints="8" NumberOfLines="7">
         <PointData Scalars="vmax">
            <DataArray type="Float64" Name="vmax" format="ascii">23.1499998 20.5777776 25.722222 30.8666664 36.0111108 43.7277774 51.444444 43.7277774</DataArray>
         </PointData>
         <Points>
            <DataArray NumberOfComponents="3" type="Float64" Name="PointLocations" format="ascii">-80.9 19.4 0  -81.4 20 0  -82.6 21.7 0  -84.4 23.7 0  -86.3 25.7 0  -88 27.6 0  -89.2 29.3 0  -89.7 30.7 0</DataArray>
         </Points>
         <Lines>
            <DataArray type="Int32" Name="connectivity" format="ascii">0 1  1 2  2 3  3 4  4 5  5 6  6 7  7 8</DataArray>
            <DataArray type="Int32" Name="offsets" format="ascii">2 4 6 8 10 12 14 16</DataArray>
         </Lines>
      </Piece>
      <!-- from track file IDA.f17.actual.fort.22 -->
      <Piece NumberOfPoints="8" NumberOfLines="7">
         <PointData Scalars="vmax">
            <DataArray type="Float64" Name="vmax" format="ascii">23.1499998 20.5777776 25.722222 30.8666664 36.0111108 43.7277774 51.444444 43.7277774</DataArray>
         </PointData>
         <Points>
            <DataArray NumberOfComponents="3" type="Float64" Name="PointLocations" format="ascii">-80.9 19.4 0  -81.4 20 0  -82.6 21.7 0  -84.4 23.8 0  -86.2 25.8 0  -87.9 27.7 0  -89 29.4 0  -89.5 30.8 0</DataArray>
         </Points>
         <Lines>
            <DataArray type="Int32" Name="connectivity" format="ascii">0 1  1 2  2 3  3 4  4 5  5 6  6 7  7 8</DataArray>
            <DataArray type="Int32" Name="offsets" format="ascii">2 4 6 8 10 12 14 16</DataArray>
         </Lines>
      </Piece>
   </PolyData>
</VTKFile>
