<?xml version="1.0"?>

<VTKFile type="PolyData" version="0.1" byte_order="LittleEndian">
   <PolyData>
      <!-- from track file LAURA.f01.actual.fort.22 -->
      <Piece NumberOfPoints="10" NumberOfLines="9">
         <PointData Scalars="vmax">
            <DataArray type="Float64" Name="vmax" format="ascii">25.722222 28.2944442 28.2944442 30.8666664 33.4388886 38.583333 43.7277774 46.2999996 18.0055554 12.861111</DataArray>
         </PointData>
         <Points>
            <DataArray NumberOfComponents="3" type="Float64" Name="PointLocations" format="ascii">-77.8 20.2 0  -78.9 20.8 0  -81.6 21.3 0  -84.8 22.3 0  -88 23.8 0  -90.8 25.2 0  -93.2 27.1 0  -94.8 29.1 0  -94 35.9 0  -83.4 40.6 0</DataArray>
         </Points>
         <Lines>
            <DataArray type="Int32" Name="connectivity" format="ascii">0 1  1 2  2 3  3 4  4 5  5 6  6 7  7 8  8 9  9 10</DataArray>
            <DataArray type="Int32" Name="offsets" format="ascii">2 4 6 8 10 12 14 16 18 20</DataArray>
         </Lines>
      </Piece>
      <!-- from track file LAURA.f02.actual.fort.22 -->
      <Piece NumberOfPoints="10" NumberOfLines="9">
         <PointData Scalars="vmax">
            <DataArray type="Float64" Name="vmax" format="ascii">25.722222 28.2944442 28.2944442 30.8666664 33.4388886 38.583333 43.7277774 46.2999996 18.0055554 12.861111</DataArray>
         </PointData>
         <Points>
            <DataArray NumberOfComponents="3" type="Float64" Name="PointLocations" format="ascii">-77.8 20.2 0  -78.9 20.8 0  -81.6 21.3 0  -84.8 22.4 0  -87.9 23.9 0  -90.7 25.3 0  -93.1 27.2 0  -94.6 29.2 0  -93.7 35.8 0  -83.2 40.2 0</DataArray>
         </Points>
         <Lines>
            <DataArray type="Int32" Name="connectivity" format="ascii">0 1  1 2  2 3  3 4  4 5  5 6  6 7  7 8  8 9  9 10</DataArray>
            <DataArray type="Int32" Name="offsets" format="ascii">2 4 6 8 10 12 14 16 18 20</DataArray>
         </Lines>
      </Piece>
      <!-- from track file LAURA.f03.actual.fort.22 -->
      <Piece NumberOfPoints="10" NumberOfLines="9">
         <PointData Scalars="vmax">
            <DataArray type="Float64" Name="vmax" format="ascii">25.722222 28.2944442 28.2944442 30.8666664 33.4388886 38.583333 43.7277774 46.2999996 18.0055554 12.861111</DataArray>
         </PointData>
         <Points>
            <DataArray NumberOfComponents="3" type="Float64" Name="PointLocations" format="ascii">-77.8 20.2 0  -78.9 20.8 0  -81.6 21.4 0  -84.7 22.4 0  -87.9 23.9 0  -90.6 25.4 0  -93 27.3 0  -94.4 29.3 0  -93.4 35.7 0  -83.1 39.8 0</DataArray>
         </Points>
         <Lines>
            <DataArray type="Int32" Name="connectivity" format="ascii">0 1  1 2  2 3  3 4  4 5  5 6  6 7  7 8  8 9  9 10</DataArray>
            <DataArray type="Int32" Name="offsets" format="ascii">2 4 6 8 10 12 14 16 18 20</DataArray>
         </Lines>
      </Piece>
      <!-- from track file LAURA.f04.actual.fort.22 -->
      <Piece NumberOfPoints="10" NumberOfLines="9">
         <PointData Scalars="vmax">
            <DataArray type="Float64" Name="vmax" format="ascii">25.722222 28.2944442 28.2944442 30.8666664 33.4388886 38.583333 43.7277774 46.2999996 18.0055554 12.861111</DataArray>
         </PointData>
         <Points>
            <DataArray NumberOfComponents="3" type="Float64" Name="PointLocations" format="ascii">-77.8 20.2 0  -78.9 20.8 0  -81.5 21.4 0  -84.7 22.5 0  -87.8 24 0  -90.5 25.5 0  -92.9 27.4 0  -94.2 29.3 0  -93 35.7 0  -82.9 39.4 0</DataArray>
         </Points>
         <Lines>
            <DataArray type="Int32" Name="connectivity" format="ascii">0 1  1 2  2 3  3 4  4 5  5 6  6 7  7 8  8 9  9 10</DataArray>
            <DataArray type="Int32" Name="offsets" format="ascii">2 4 6 8 10 12 14 16 18 20</DataArray>
         </Lines>
      </Piece>
      <!-- from track file LAURA.f05.actual.fort.22 -->
      <Piece NumberOfPoints="10" NumberOfLines="9">
         <PointData Scalars="vmax">
            <DataArray type="Float64" Name="vmax" format="ascii">25.722222 28.2944442 28.2944442 30.8666664 33.4388886 38.583333 43.7277774 46.2999996 18.0055554 12.861111</DataArray>
         </PointData>
         <Points>
            <DataArray NumberOfComponents="3" type="Float64" Name="PointLocations" format="ascii">-77.8 20.2 0  -78.9 20.8 0  -81.5 21.5 0  -84.7 22.6 0  -87.8 24.1 0  -90.5 25.6 0  -92.7 27.5 0  -94 29.4 0  -92.7 35.6 0  -82.7 39.1 0</DataArray>
         </Points>
         <Lines>
            <DataArray type="Int32" Name="connectivity" format="ascii">0 1  1 2  2 3  3 4  4 5  5 6  6 7  7 8  8 9  9 10</DataArray>
            <DataArray type="Int32" Name="offsets" format="ascii">2 4 6 8 10 12 14 16 18 20</DataArray>
         </Lines>
      </Piece>
      <!-- from track file LAURA.f06.actual.fort.22 -->
      <Piece NumberOfPoints="10" NumberOfLines="9">
         <PointData Scalars="vmax">
            <DataArray type="Float64" Name="vmax" format="ascii">25.722222 28.2944442 28.2944442 30.8666664 33.4388886 38.583333 43.7277774 46.2999996 18.0055554 12.861111</DataArray>
         </PointData>
         <Points>
            <DataArray NumberOfComponents="3" type="Float64" Name="PointLocations" format="ascii">-77.8 20.2 0  -78.9 20.8 0  -81.5 21.5 0  -84.6 22.6 0  -87.7 24.2 0  -90.4 25.7 0  -92.6 27.6 0  -93.8 29.5 0  -92.4 35.6 0  -82.5 38.7 0</DataArray>
         </Points>
         <Lines>
            <DataArray type="Int32" Name="connectivity" format="ascii">0 1  1 2  2 3  3 4  4 5  5 6  6 7  7 8  8 9  9 10</DataArray>
            <DataArray type="Int32" Name="offsets" format="ascii">2 4 6 8 10 12 14 16 18 20</DataArray>
         </Lines>
      </Piece>
      <!-- from track file LAURA.f07.actual.fort.22 -->
      <Piece NumberOfPoints="10" NumberOfLines="9">
         <PointData Scalars="vmax">
            <DataArray type="Float64" Name="vmax" format="ascii">25.722222 28.2944442 28.2944442 30.8666664 33.4388886 38.583333 43.7277774 46.2999996 18.0055554 12.861111</DataArray>
         </PointData>
         <Points>
            <DataArray NumberOfComponents="3" type="Float64" Name="PointLocations" format="ascii">-77.8 20.2 0  -78.9 20.8 0  -81.5 21.6 0  -84.6 22.7 0  -87.7 24.3 0  -90.3 25.8 0  -92.5 27.7 0  -93.6 29.6 0  -92.1 35.5 0  -82.4 38.3 0</DataArray>
         </Points>
         <Lines>
            <DataArray type="Int32" Name="connectivity" format="ascii">0 1  1 2  2 3  3 4  4 5  5 6  6 7  7 8  8 9  9 10</DataArray>
            <DataArray type="Int32" Name="offsets" format="ascii">2 4 6 8 10 12 14 16 18 20</DataArray>
         </Lines>
      </Piece>
      <!-- from track file LAURA.f08.actual.fort.22 -->
      <Piece NumberOfPoints="10" NumberOfLines="9">
         <PointData Scalars="vmax">
            <DataArray type="Float64" Name="vmax" format="ascii">25.722222 28.2944442 28.2944442 30.8666664 33.4388886 38.583333 43.7277774 46.2999996 18.0055554 12.861111</DataArray>
         </PointData>
         <Points>
            <DataArray NumberOfComponents="3" type="Float64" Name="PointLocations" format="ascii">-77.8 20.2 0  -78.9 20.8 0  -81.5 21.6 0  -84.6 22.8 0  -87.6 24.4 0  -90.2 25.9 0  -92.4 27.8 0  -93.4 29.7 0  -91.8 35.4 0  -82.2 37.9 0</DataArray>
         </Points>
         <Lines>
            <DataArray type="Int32" Name="connectivity" format="ascii">0 1  1 2  2 3  3 4  4 5  5 6  6 7  7 8  8 9  9 10</DataArray>
            <DataArray type="Int32" Name="offsets" format="ascii">2 4 6 8 10 12 14 16 18 20</DataArray>
         </Lines>
      </Piece>
      <!-- from track file LAURA.f09.actual.fort.22 -->
      <Piece NumberOfPoints="10" NumberOfLines="9">
         <PointData Scalars="vmax">
            <DataArray type="Float64" Name="vmax" format="ascii">25.722222 28.2944442 28.2944442 30.8666664 33.4388886 38.583333 43.7277774 46.2999996 18.0055554 12.861111</DataArray>
         </PointData>
         <Points>
            <DataArray NumberOfComponents="3" type="Float64" Name="PointLocations" format="ascii">-77.8 20.2 0  -78.9 20.8 0  -81.5 21.7 0  -84.6 22.9 0  -87.6 24.5 0  -90.2 26.1 0  -92.3 28 0  -93.3 29.8 0  -91.5 35.4 0  -82.1 37.6 0</DataArray>
         </Points>
         <Lines>
            <DataArray type="Int32" Name="connectivity" format="ascii">0 1  1 2  2 3  3 4  4 5  5 6  6 7  7 8  8 9  9 10</DataArray>
            <DataArray type="Int32" Name="offsets" format="ascii">2 4 6 8 10 12 14 16 18 20</DataArray>
         </Lines>
      </Piece>
      <!-- from track file LAURA.f10.actual.fort.22 -->
      <Piece NumberOfPoints="10" NumberOfLines="9">
         <PointData Scalars="vmax">
            <DataArray type="Float64" Name="vmax" format="ascii">25.722222 28.2944442 28.2944442 30.8666664 33.4388886 38.583333 43.7277774 46.2999996 18.0055554 12.861111</DataArray>
         </PointData>
         <Points>
            <DataArray NumberOfComponents="3" type="Float64" Name="PointLocations" format="ascii">-77.8 20.2 0  -78.9 20.8 0  -81.4 21.7 0  -84.5 22.9 0  -87.5 24.5 0  -90.1 26.2 0  -92.1 28.1 0  -93.1 29.8 0  -91.1 35.3 0  -81.9 37.2 0</DataArray>
         </Points>
         <Lines>
            <DataArray type="Int32" Name="connectivity" format="ascii">0 1  1 2  2 3  3 4  4 5  5 6  6 7  7 8  8 9  9 10</DataArray>
            <DataArray type="Int32" Name="offsets" format="ascii">2 4 6 8 10 12 14 16 18 20</DataArray>
         </Lines>
      </Piece>
      <!-- from track file LAURA.f11.actual.fort.22 -->
      <Piece NumberOfPoints="10" NumberOfLines="9">
         <PointData Scalars="vmax">
            <DataArray type="Float64" Name="vmax" format="ascii">25.722222 28.2944442 28.2944442 30.8666664 33.4388886 38.583333 43.7277774 46.2999996 18.0055554 12.861111</DataArray>
         </PointData>
         <Points>
            <DataArray NumberOfComponents="3" type="Float64" Name="PointLocations" format="ascii">-77.8 20.2 0  -78.9 20.8 0  -81.4 21.7 0  -84.5 23 0  -87.4 24.6 0  -90 26.3 0  -92 28.2 0  -92.9 29.9 0  -90.8 35.2 0  -81.7 36.8 0</DataArray>
         </Points>
         <Lines>
            <DataArray type="Int32" Name="connectivity" format="ascii">0 1  1 2  2 3  3 4  4 5  5 6  6 7  7 8  8 9  9 10</DataArray>
            <DataArray type="Int32" Name="offsets" format="ascii">2 4 6 8 10 12 14 16 18 20</DataArray>
         </Lines>
      </Piece>
      <!-- from track file LAURA.f12.actual.fort.22 -->
      <Piece NumberOfPoints="10" NumberOfLines="9">
         <PointData Scalars="vmax">
            <DataArray type="Float64" Name="vmax" format="ascii">25.722222 28.2944442 28.2944442 30.8666664 33.4388886 38.583333 43.7277774 46.2999996 18.0055554 12.861111</DataArray>
         </PointData>
         <Points>
            <DataArray NumberOfComponents="3" type="Float64" Name="PointLocations" format="ascii">-77.8 20.2 0  -78.9 20.8 0  -81.4 21.8 0  -84.5 23.1 0  -87.4 24.7 0  -89.9 26.4 0  -91.9 28.3 0  -92.7 30 0  -90.5 35.1 0  -81.6 36.4 0</DataArray>
         </Points>
         <Lines>
            <DataArray type="Int32" Name="connectivity" format="ascii">0 1  1 2  2 3  3 4  4 5  5 6  6 7  7 8  8 9  9 10</DataArray>
            <DataArray type="Int32" Name="offsets" format="ascii">2 4 6 8 10 12 14 16 18 20</DataArray>
         </Lines>
      </Piece>
      <!-- from track file LAURA.f13.actual.fort.22 -->
      <Piece NumberOfPoints="10" NumberOfLines="9">
         <PointData Scalars="vmax">
            <DataArray type="Float64" Name="vmax" format="ascii">25.722222 28.2944442 28.2944442 30.8666664 33.4388886 38.583333 43.7277774 46.2999996 18.0055554 12.861111</DataArray>
         </PointData>
         <Points>
            <DataArray NumberOfComponents="3" type="Float64" Name="PointLocations" format="ascii">-77.8 20.2 0  -78.9 20.8 0  -81.4 21.8 0  -84.4 23.1 0  -87.3 24.8 0  -89.8 26.5 0  -91.8 28.4 0  -92.5 30.1 0  -90.2 35.1 0  -81.4 36 0</DataArray>
         </Points>
         <Lines>
            <DataArray type="Int32" Name="connectivity" format="ascii">0 1  1 2  2 3  3 4  4 5  5 6  6 7  7 8  8 9  9 10</DataArray>
            <DataArray type="Int32" Name="offsets" format="ascii">2 4 6 8 10 12 14 16 18 20</DataArray>
         </Lines>
      </Piece>
      <!-- from track file LAURA.f14.actual.fort.22 -->
      <Piece NumberOfPoints="10" NumberOfLines="9">
         <PointData Scalars="vmax">
            <DataArray type="Float64" Name="vmax" format="ascii">25.722222 28.2944442 28.2944442 30.8666664 33.4388886 38.583333 43.7277774 46.2999996 18.0055554 12.861111</DataArray>
         </PointData>
         <Points>
            <DataArray NumberOfComponents="3" type="Float64" Name="PointLocations" format="ascii">-77.8 20.2 0  -78.9 20.8 0  -81.4 21.9 0  -84.4 23.2 0  -87.3 24.9 0  -89.8 26.6 0  -91.6 28.5 0  -92.3 30.2 0  -89.9 35 0  -81.3 35.7 0</DataArray>
         </Points>
         <Lines>
            <DataArray type="Int32" Name="connectivity" format="ascii">0 1  1 2  2 3  3 4  4 5  5 6  6 7  7 8  8 9  9 10</DataArray>
            <DataArray type="Int32" Name="offsets" format="ascii">2 4 6 8 10 12 14 16 18 20</DataArray>
         </Lines>
      </Piece>
      <!-- from track file LAURA.f15.actual.fort.22 -->
      <Piece NumberOfPoints="10" NumberOfLines="9">
         <PointData Scalars="vmax">
            <DataArray type="Float64" Name="vmax" format="ascii">25.722222 28.2944442 28.2944442 30.8666664 33.4388886 38.583333 43.7277774 46.2999996 18.0055554 12.861111</DataArray>
         </PointData>
         <Points>
            <DataArray NumberOfComponents="3" type="Float64" Name="PointLocations" format="ascii">-77.8 20.2 0  -78.9 20.8 0  -81.3 21.9 0  -84.4 23.3 0  -87.2 25 0  -89.7 26.7 0  -91.5 28.6 0  -92.1 30.2 0  -89.6 34.9 0  -81.1 35.3 0</DataArray>
         </Points>
         <Lines>
            <DataArray type="Int32" Name="connectivity" format="ascii">0 1  1 2  2 3  3 4  4 5  5 6  6 7  7 8  8 9  9 10</DataArray>
            <DataArray type="Int32" Name="offsets" format="ascii">2 4 6 8 10 12 14 16 18 20</DataArray>
         </Lines>
      </Piece>
      <!-- from track file LAURA.f16.actual.fort.22 -->
      <Piece NumberOfPoints="10" NumberOfLines="9">
         <PointData Scalars="vmax">
            <DataArray type="Float64" Name="vmax" format="ascii">25.722222 28.2944442 28.2944442 30.8666664 33.4388886 38.583333 43.7277774 46.2999996 18.0055554 12.861111</DataArray>
         </PointData>
         <Points>
            <DataArray NumberOfComponents="3" type="Float64" Name="PointLocations" format="ascii">-77.8 20.2 0  -78.9 20.8 0  -81.3 22 0  -84.3 23.3 0  -87.2 25 0  -89.6 26.8 0  -91.4 28.7 0  -91.9 30.3 0  -89.2 34.8 0  -80.9 34.9 0</DataArray>
         </Points>
         <Lines>
            <DataArray type="Int32" Name="connectivity" format="ascii">0 1  1 2  2 3  3 4  4 5  5 6  6 7  7 8  8 9  9 10</DataArray>
            <DataArray type="Int32" Name="offsets" format="ascii">2 4 6 8 10 12 14 16 18 20</DataArray>
         </Lines>
      </Piece>
      <!-- from track file LAURA.f17.actual.fort.22 -->
      <Piece NumberOfPoints="10" NumberOfLines="9">
         <PointData Scalars="vmax">
            <DataArray type="Float64" Name="vmax" format="ascii">25.722222 28.2944442 28.2944442 30.8666664 33.4388886 38.583333 43.7277774 46.2999996 18.0055554 12.861111</DataArray>
         </PointData>
         <Points>
            <DataArray NumberOfComponents="3" type="Float64" Name="PointLocations" format="ascii">-77.8 20.2 0  -78.9 20.8 0  -81.3 22 0  -84.3 23.4 0  -87.1 25.1 0  -89.5 26.9 0  -91.3 28.8 0  -91.7 30.4 0  -88.9 34.8 0  -80.8 34.5 0</DataArray>
         </Points>
         <Lines>
            <DataArray type="Int32" Name="connectivity" format="ascii">0 1  1 2  2 3  3 4  4 5  5 6  6 7  7 8  8 9  9 10</DataArray>
            <DataArray type="Int32" Name="offsets" format="ascii">2 4 6 8 10 12 14 16 18 20</DataArray>
         </Lines>
      </Piece>
   </PolyData>
</VTKFile>
