<?xml version="1.0"?>

<VTKFile type="PolyData" version="0.1" byte_order="LittleEndian">
   <PolyData>
      <!-- from track file MILTON.f01.actual.fort.22 -->
      <Piece NumberOfPoints="8" NumberOfLines="7">
         <PointData Scalars="vmax">
            <DataArray type="Float64" Name="vmax" format="ascii">46.2999996 43.7277774 51.444444 59.1611106 64.305555 64.305555 56.5888884 38.583333</DataArray>
         </PointData>
         <Points>
            <DataArray NumberOfComponents="3" type="Float64" Name="PointLocations" format="ascii">-92.9 22.1 0  -92.6 22.1 0  -91.2 22.2 0  -89.5 22.7 0  -87.8 23.7 0  -86.4 25.3 0  -84.8 27.2 0  -82.8 29.2 0</DataArray>
         </Points>
         <Lines>
            <DataArray type="Int32" Name="connectivity" format="ascii">0 1  1 2  2 3  3 4  4 5  5 6  6 7  7 8</DataArray>
            <DataArray type="Int32" Name="offsets" format="ascii">2 4 6 8 10 12 14 16</DataArray>
         </Lines>
      </Piece>
      <!-- from track file MILTON.f02.actual.fort.22 -->
      <Piece NumberOfPoints="8" NumberOfLines="7">
         <PointData Scalars="vmax">
            <DataArray type="Float64" Name="vmax" format="ascii">46.2999996 43.7277774 51.444444 59.1611106 64.305555 64.305555 56.5888884 38.583333</DataArray>
         </PointData>
         <Points>
            <DataArray NumberOfComponents="3" type="Float64" Name="PointLocations" format="ascii">-92.9 22.1 0  -92.6 22.1 0  -91.2 22.2 0  -89.4 22.7 0  -87.8 23.7 0  -86.3 25.3 0  -84.7 27.1 0  -82.6 29 0</DataArray>
         </Points>
         <Lines>
            <DataArray type="Int32" Name="connectivity" format="ascii">0 1  1 2  2 3  3 4  4 5  5 6  6 7  7 8</DataArray>
            <DataArray type="Int32" Name="offsets" format="ascii">2 4 6 8 10 12 14 16</DataArray>
         </Lines>
      </Piece>
      <!-- from track file MILTON.f03.actual.fort.22 -->
      <Piece NumberOfPoints="8" NumberOfLines="7">
         <PointData Scalars="vmax">
            <DataArray type="Float64" Name="vmax" format="ascii">46.2999996 43.7277774 51.444444 59.1611106 64.305555 64.305555 56.5888884 38.583333</DataArray>
         </PointData>
         <Points>
            <DataArray NumberOfComponents="3" type="Float64" Name="PointLocations" format="ascii">-92.9 22.1 0  -92.6 22.1 0  -91.2 22.1 0  -89.4 22.6 0  -87.7 23.6 0  -86.2 25.2 0  -84.6 27 0  -82.5 28.9 0</DataArray>
         </Points>
         <Lines>
            <DataArray type="Int32" Name="connectivity" format="ascii">0 1  1 2  2 3  3 4  4 5  5 6  6 7  7 8</DataArray>
            <DataArray type="Int32" Name="offsets" format="ascii">2 4 6 8 10 12 14 16</DataArray>
         </Lines>
      </Piece>
      <!-- from track file MILTON.f04.actual.fort.22 -->
      <Piece NumberOfPoints="8" NumberOfLines="7">
         <PointData Scalars="vmax">
            <DataArray type="Float64" Name="vmax" format="ascii">46.2999996 43.7277774 51.444444 59.1611106 64.305555 64.305555 56.5888884 38.583333</DataArray>
         </PointData>
         <Points>
            <DataArray NumberOfComponents="3" type="Float64" Name="PointLocations" format="ascii">-92.9 22.1 0  -92.6 22.1 0  -91.2 22.1 0  -89.4 22.5 0  -87.7 23.5 0  -86.1 25.1 0  -84.5 26.9 0  -82.4 28.8 0</DataArray>
         </Points>
         <Lines>
            <DataArray type="Int32" Name="connectivity" format="ascii">0 1  1 2  2 3  3 4  4 5  5 6  6 7  7 8</DataArray>
            <DataArray type="Int32" Name="offsets" format="ascii">2 4 6 8 10 12 14 16</DataArray>
         </Lines>
      </Piece>
      <!-- from track file MILTON.f05.actual.fort.22 -->
      <Piece NumberOfPoints="8" NumberOfLines="7">
         <PointData Scalars="vmax">
            <DataArray type="Float64" Name="vmax" format="ascii">46.2999996 43.7277774 51.444444 59.1611106 64.305555 64.305555 56.5888884 38.583333</DataArray>
         </PointData>
         <Points>
            <DataArray NumberOfComponents="3" type="Float64" Name="PointLocations" format="ascii">-92.9 22.1 0  -92.6 22.1 0  -91.2 22 0  -89.4 22.4 0  -87.6 23.4 0  -86 25 0  -84.3 26.8 0  -82.2 28.6 0</DataArray>
         </Points>
         <Lines>
            <DataArray type="Int32" Name="connectivity" format="ascii">0 1  1 2  2 3  3 4  4 5  5 6  6 7  7 8</DataArray>
            <DataArray type="Int32" Name="offsets" format="ascii">2 4 6 8 10 12 14 16</DataArray>
         </Lines>
      </Piece>
      <!-- from track file MILTON.f06.actual.fort.22 -->
      <Piece NumberOfPoints="8" NumberOfLines="7">
         <PointData Scalars="vmax">
            <DataArray type="Float64" Name="vmax" format="ascii">46.2999996 43.7277774 51.444444 59.1611106 64.305555 64.305555 56.5888884 38.583333</DataArray>
         </PointData>
         <Points>
            <DataArray NumberOfComponents="3" type="Float64" Name="PointLocations" format="ascii">-92.9 22.1 0  -92.6 22.1 0  -91.2 22 0  -89.4 22.4 0  -87.6 23.3 0  -85.9 24.9 0  -84.2 26.7 0  -82.1 28.5 0</DataArray>
         </Points>
         <Lines>
            <DataArray type="Int32" Name="connectivity" format="ascii">0 1  1 2  2 3  3 4  4 5  5 6  6 7  7 8</DataArray>
            <DataArray type="Int32" Name="offsets" format="ascii">2 4 6 8 10 12 14 16</DataArray>
         </Lines>
      </Piece>
      <!-- from track file MILTON.f07.actual.fort.22 -->
      <Piece NumberOfPoints="8" NumberOfLines="7">
         <PointData Scalars="vmax">
            <DataArray type="Float64" Name="vmax" format="ascii">46.2999996 43.7277774 51.444444 59.1611106 64.305555 64.305555 56.5888884 38.583333</DataArray>
         </PointData>
         <Points>
            <DataArray NumberOfComponents="3" type="Float64" Name="PointLocations" format="ascii">-92.9 22.1 0  -92.6 22.1 0  -91.2 21.9 0  -89.4 22.3 0  -87.5 23.2 0  -85.8 24.8 0  -84.1 26.6 0  -81.9 28.3 0</DataArray>
         </Points>
         <Lines>
            <DataArray type="Int32" Name="connectivity" format="ascii">0 1  1 2  2 3  3 4  4 5  5 6  6 7  7 8</DataArray>
            <DataArray type="Int32" Name="offsets" format="ascii">2 4 6 8 10 12 14 16</DataArray>
         </Lines>
      </Piece>
      <!-- from track file MILTON.f08.actual.fort.22 -->
      <Piece NumberOfPoints="8" NumberOfLines="7">
         <PointData Scalars="vmax">
            <DataArray type="Float64" Name="vmax" format="ascii">46.2999996 43.7277774 51.444444 59.1611106 64.305555 64.305555 56.5888884 38.583333</DataArray>
         </PointData>
         <Points>
            <DataArray NumberOfComponents="3" type="Float64" Name="PointLocations" format="ascii">-92.9 22.1 0  -92.6 22.1 0  -91.2 21.9 0  -89.4 22.2 0  -87.5 23.1 0  -85.7 24.7 0  -84 26.5 0  -81.8 28.2 0</DataArray>
         </Points>
         <Lines>
            <DataArray type="Int32" Name="connectivity" format="ascii">0 1  1 2  2 3  3 4  4 5  5 6  6 7  7 8</DataArray>
            <DataArray type="Int32" Name="offsets" format="ascii">2 4 6 8 10 12 14 16</DataArray>
         </Lines>
      </Piece>
      <!-- from track file MILTON.f09.actual.fort.22 -->
      <Piece NumberOfPoints="8" NumberOfLines="7">
         <PointData Scalars="vmax">
            <DataArray type="Float64" Name="vmax" format="ascii">46.2999996 43.7277774 51.444444 59.1611106 64.305555 64.305555 56.5888884 38.583333</DataArray>
         </PointData>
         <Points>
            <DataArray NumberOfComponents="3" type="Float64" Name="PointLocations" format="ascii">-92.9 22.1 0  -92.6 22.1 0  -91.3 21.9 0  -89.4 22.2 0  -87.5 23.1 0  -85.7 24.7 0  -83.9 26.4 0  -81.7 28.1 0</DataArray>
         </Points>
         <Lines>
            <DataArray type="Int32" Name="connectivity" format="ascii">0 1  1 2  2 3  3 4  4 5  5 6  6 7  7 8</DataArray>
            <DataArray type="Int32" Name="offsets" format="ascii">2 4 6 8 10 12 14 16</DataArray>
         </Lines>
      </Piece>
      <!-- from track file MILTON.f10.actual.fort.22 -->
      <Piece NumberOfPoints="8" NumberOfLines="7">
         <PointData Scalars="vmax">
            <DataArray type="Float64" Name="vmax" format="ascii">46.2999996 43.7277774 51.444444 59.1611106 64.305555 64.305555 56.5888884 38.583333</DataArray>
         </PointData>
         <Points>
            <DataArray NumberOfComponents="3" type="Float64" Name="PointLocations" format="ascii">-92.9 22.1 0  -92.6 22.1 0  -91.3 21.8 0  -89.3 22.1 0  -87.4 23 0  -85.6 24.6 0  -83.7 26.2 0  -81.5 27.9 0</DataArray>
         </Points>
         <Lines>
            <DataArray type="Int32" Name="connectivity" format="ascii">0 1  1 2  2 3  3 4  4 5  5 6  6 7  7 8</DataArray>
            <DataArray type="Int32" Name="offsets" format="ascii">2 4 6 8 10 12 14 16</DataArray>
         </Lines>
      </Piece>
      <!-- from track file MILTON.f11.actual.fort.22 -->
      <Piece NumberOfPoints="8" NumberOfLines="7">
         <PointData Scalars="vmax">
            <DataArray type="Float64" Name="vmax" format="ascii">46.2999996 43.7277774 51.444444 59.1611106 64.305555 64.305555 56.5888884 38.583333</DataArray>
         </PointData>
         <Points>
            <DataArray NumberOfComponents="3" type="Float64" Name="PointLocations" format="ascii">-92.9 22.1 0  -92.6 22.1 0  -91.3 21.8 0  -89.3 22 0  -87.4 22.9 0  -85.5 24.5 0  -83.6 26.1 0  -81.4 27.8 0</DataArray>
         </Points>
         <Lines>
            <DataArray type="Int32" Name="connectivity" format="ascii">0 1  1 2  2 3  3 4  4 5  5 6  6 7  7 8</DataArray>
            <DataArray type="Int32" Name="offsets" format="ascii">2 4 6 8 10 12 14 16</DataArray>
         </Lines>
      </Piece>
      <!-- from track file MILTON.f12.actual.fort.22 -->
      <Piece NumberOfPoints="8" NumberOfLines="7">
         <PointData Scalars="vmax">
            <DataArray type="Float64" Name="vmax" format="ascii">46.2999996 43.7277774 51.444444 59.1611106 64.305555 64.305555 56.5888884 38.583333</DataArray>
         </PointData>
         <Points>
            <DataArray NumberOfComponents="3" type="Float64" Name="PointLocations" format="ascii">-92.9 22.1 0  -92.6 22.1 0  -91.3 21.7 0  -89.3 21.9 0  -87.3 22.8 0  -85.4 24.4 0  -83.5 26 0  -81.2 27.6 0</DataArray>
         </Points>
         <Lines>
            <DataArray type="Int32" Name="connectivity" format="ascii">0 1  1 2  2 3  3 4  4 5  5 6  6 7  7 8</DataArray>
            <DataArray type="Int32" Name="offsets" format="ascii">2 4 6 8 10 12 14 16</DataArray>
         </Lines>
      </Piece>
      <!-- from track file MILTON.f13.actual.fort.22 -->
      <Piece NumberOfPoints="8" NumberOfLines="7">
         <PointData Scalars="vmax">
            <DataArray type="Float64" Name="vmax" format="ascii">46.2999996 43.7277774 51.444444 59.1611106 64.305555 64.305555 56.5888884 38.583333</DataArray>
         </PointData>
         <Points>
            <DataArray NumberOfComponents="3" type="Float64" Name="PointLocations" format="ascii">-92.9 22.1 0  -92.6 22.1 0  -91.3 21.7 0  -89.3 21.9 0  -87.3 22.7 0  -85.3 24.3 0  -83.4 25.9 0  -81.1 27.5 0</DataArray>
         </Points>
         <Lines>
            <DataArray type="Int32" Name="connectivity" format="ascii">0 1  1 2  2 3  3 4  4 5  5 6  6 7  7 8</DataArray>
            <DataArray type="Int32" Name="offsets" format="ascii">2 4 6 8 10 12 14 16</DataArray>
         </Lines>
      </Piece>
      <!-- from track file MILTON.f14.actual.fort.22 -->
      <Piece NumberOfPoints="8" NumberOfLines="7">
         <PointData Scalars="vmax">
            <DataArray type="Float64" Name="vmax" format="ascii">46.2999996 43.7277774 51.444444 59.1611106 64.305555 64.305555 56.5888884 38.583333</DataArray>
         </PointData>
         <Points>
            <DataArray NumberOfComponents="3" type="Float64" Name="PointLocations" format="ascii">-92.9 22.1 0  -92.6 22.1 0  -91.3 21.6 0  -89.3 21.8 0  -87.2 22.6 0  -85.2 24.2 0  -83.2 25.8 0  -81 27.3 0</DataArray>
         </Points>
         <Lines>
            <DataArray type="Int32" Name="connectivity" format="ascii">0 1  1 2  2 3  3 4  4 5  5 6  6 7  7 8</DataArray>
            <DataArray type="Int32" Name="offsets" format="ascii">2 4 6 8 10 12 14 16</DataArray>
         </Lines>
      </Piece>
      <!-- from track file MILTON.f15.actual.fort.22 -->
      <Piece NumberOfPoints="8" NumberOfLines="7">
         <PointData Scalars="vmax">
            <DataArray type="Float64" Name="vmax" format="ascii">46.2999996 43.7277774 51.444444 59.1611106 64.305555 64.305555 56.5888884 38.583333</DataArray>
         </PointData>
         <Points>
            <DataArray NumberOfComponents="3" type="Float64" Name="PointLocations" format="ascii">-92.9 22.1 0  -92.6 22.1 0  -91.3 21.6 0  -89.3 21.7 0  -87.2 22.5 0  -85.1 24.1 0  -83.1 25.7 0  -80.8 27.2 0</DataArray>
         </Points>
         <Lines>
            <DataArray type="Int32" Name="connectivity" format="ascii">0 1  1 2  2 3  3 4  4 5  5 6  6 7  7 8</DataArray>
            <DataArray type="Int32" Name="offsets" format="ascii">2 4 6 8 10 12 14 16</DataArray>
         </Lines>
      </Piece>
      <!-- from track file MILTON.f16.actual.fort.22 -->
      <Piece NumberOfPoints="8" NumberOfLines="7">
         <PointData Scalars="vmax">
            <DataArray type="Float64" Name="vmax" format="ascii">46.2999996 43.7277774 51.444444 59.1611106 64.305555 64.305555 56.5888884 38.583333</DataArray>
         </PointData>
         <Points>
            <DataArray NumberOfComponents="3" type="Float64" Name="PointLocations" format="ascii">-92.9 22.1 0  -92.6 22.1 0  -91.3 21.5 0  -89.3 21.6 0  -87.1 22.4 0  -85 24 0  -83 25.6 0  -80.7 27.1 0</DataArray>
         </Points>
         <Lines>
            <DataArray type="Int32" Name="connectivity" format="ascii">0 1  1 2  2 3  3 4  4 5  5 6  6 7  7 8</DataArray>
            <DataArray type="Int32" Name="offsets" format="ascii">2 4 6 8 10 12 14 16</DataArray>
         </Lines>
      </Piece>
      <!-- from track file MILTON.f17.actual.fort.22 -->
      <Piece NumberOfPoints="8" NumberOfLines="7">
         <PointData Scalars="vmax">
            <DataArray type="Float64" Name="vmax" format="ascii">46.2999996 43.7277774 51.444444 59.1611106 64.305555 64.305555 56.5888884 38.583333</DataArray>
         </PointData>
         <Points>
            <DataArray NumberOfComponents="3" type="Float64" Name="PointLocations" format="ascii">-92.9 22.1 0  -92.6 22.1 0  -91.3 21.5 0  -89.2 21.6 0  -87.1 22.4 0  -84.9 23.9 0  -82.9 25.5 0  -80.5 26.9 0</DataArray>
         </Points>
         <Lines>
            <DataArray type="Int32" Name="connectivity" format="ascii">0 1  1 2  2 3  3 4  4 5  5 6  6 7  7 8</DataArray>
            <DataArray type="Int32" Name="offsets" format="ascii">2 4 6 8 10 12 14 16</DataArray>
         </Lines>
      </Piece>
   </PolyData>
</VTKFile>
